# xmcd
#
# Track frame offsets:
# 150
# 22650
# 48375
# 65100
# 84450
# 106350
# 125625
# 143550
# 161925
# 183675
#
# Disc length: 2830 seconds
#
#
# Revision: 1
# Processed by: cddbd v1.5.1PL0 Copyright (c) Steve Scherf et al.
# Submitted via: MCataloguer 1.2.6 
#
DISCID=8a0b0c0a
DTITLE=羽泉 - 最美
DYEAR=1999
DGENRE=blues
TTITLE0=最美
TTITLE1=感觉不到你
TTITLE2=转弯
TTITLE3=谁不曾,谁不想
TTITLE4=回头想想
TTITLE5=怎么能够
TTITLE6=爱浪漫的
TTITLE7=蜡人
TTITLE8=爱自己
TTITLE9=海
EXTD=
EXTT0=
EXTT1=
EXTT2=
EXTT3=
EXTT4=
EXTT5=
EXTT6=
EXTT7=
EXTT8=
EXTT9=
PLAYORDER=
